# xmcd
#
# Track frame offsets:
#	150
#	21397
#	43047
#	65992
#	89020
#	108757
#	129962
#	152760
#	175842
#	193482
#
# Disc length: 2853 seconds
#
# Revision: 1
# Processed by: cddbd v1.5.2PL0 Copyright (c) Steve Scherf et al.
# Submitted via: EZCDAudioConverter 8.0.2.1
#
DISCID=8e0b230a
DTITLE=Chế Linh - Đêm Trên Vùng Đất Lạ
DYEAR=2000
DGENRE=Miscellaneous
TTITLE0=Hương thầm
TTITLE1=Những đóm mắt hỏa châu
TTITLE2=Phượng hồng
TTITLE3=Như đã dấu yêu
TTITLE4=Đêm Trên Vùng Đất Lạ
TTITLE5=Đôi mắt người xưa
TTITLE6=Vết thương cuối cùng
TTITLE7=Mười năm yêu em
TTITLE8=Những con đường tình sử
TTITLE9=Kiếp đam mê
EXTD=
EXTT0=
EXTT1=
EXTT2=
EXTT3=
EXTT4=
EXTT5=
EXTT6=
EXTT7=
EXTT8=
EXTT9=
PLAYORDER=
